<mxfile host="app.diagrams.net" agent="Mozilla/5.0 (Windows NT 10.0; Win64; x64) AppleWebKit/537.36 (KHTML, like Gecko) Chrome/140.0.0.0 Safari/537.36" version="28.2.3">
  <diagram id="TyKhcHpZ3WrI1ODkfFPT" name="Trang-2">
    <mxGraphModel dx="1042" dy="562" grid="1" gridSize="10" guides="1" tooltips="1" connect="1" arrows="1" fold="1" page="1" pageScale="1" pageWidth="827" pageHeight="1169" math="0" shadow="0">
      <root>
        <mxCell id="0" />
        <mxCell id="1" parent="0" />
        <mxCell id="ayoeKjZ_z30UMW4UzM_f-3" value="" style="edgeStyle=orthogonalEdgeStyle;rounded=0;orthogonalLoop=1;jettySize=auto;html=1;" parent="1" source="ayoeKjZ_z30UMW4UzM_f-1" target="ayoeKjZ_z30UMW4UzM_f-2" edge="1">
          <mxGeometry relative="1" as="geometry" />
        </mxCell>
        <mxCell id="ayoeKjZ_z30UMW4UzM_f-1" value="Bắt đầu" style="ellipse;whiteSpace=wrap;html=1;" parent="1" vertex="1">
          <mxGeometry x="170" y="140" width="160" height="100" as="geometry" />
        </mxCell>
        <mxCell id="2F0WKF6jckK8PiuRhkOx-1" style="edgeStyle=orthogonalEdgeStyle;rounded=0;orthogonalLoop=1;jettySize=auto;html=1;" parent="1" source="ayoeKjZ_z30UMW4UzM_f-2" edge="1">
          <mxGeometry relative="1" as="geometry">
            <mxPoint x="250" y="380" as="targetPoint" />
          </mxGeometry>
        </mxCell>
        <mxCell id="ayoeKjZ_z30UMW4UzM_f-2" value="Nhập dữ liệu : đơn hàng, thông tin sản phẩm" style="shape=parallelogram;perimeter=parallelogramPerimeter;whiteSpace=wrap;html=1;fixedSize=1;" parent="1" vertex="1">
          <mxGeometry x="175" y="280" width="150" height="60" as="geometry" />
        </mxCell>
        <mxCell id="2F0WKF6jckK8PiuRhkOx-3" style="edgeStyle=orthogonalEdgeStyle;rounded=0;orthogonalLoop=1;jettySize=auto;html=1;" parent="1" source="2F0WKF6jckK8PiuRhkOx-2" edge="1">
          <mxGeometry relative="1" as="geometry">
            <mxPoint x="250" y="480" as="targetPoint" />
          </mxGeometry>
        </mxCell>
        <mxCell id="2F0WKF6jckK8PiuRhkOx-2" value="Xử lí dữ dữ liệu, kiểm tra mặt hàng&amp;nbsp;" style="rounded=0;whiteSpace=wrap;html=1;" parent="1" vertex="1">
          <mxGeometry x="180" y="380" width="140" height="70" as="geometry" />
        </mxCell>
        <mxCell id="2F0WKF6jckK8PiuRhkOx-5" style="edgeStyle=orthogonalEdgeStyle;rounded=0;orthogonalLoop=1;jettySize=auto;html=1;" parent="1" source="2F0WKF6jckK8PiuRhkOx-4" edge="1">
          <mxGeometry relative="1" as="geometry">
            <mxPoint x="480" y="510" as="targetPoint" />
          </mxGeometry>
        </mxCell>
        <mxCell id="2F0WKF6jckK8PiuRhkOx-7" style="edgeStyle=orthogonalEdgeStyle;rounded=0;orthogonalLoop=1;jettySize=auto;html=1;" parent="1" source="2F0WKF6jckK8PiuRhkOx-4" target="2F0WKF6jckK8PiuRhkOx-8" edge="1">
          <mxGeometry relative="1" as="geometry">
            <mxPoint x="250" y="580" as="targetPoint" />
          </mxGeometry>
        </mxCell>
        <mxCell id="2F0WKF6jckK8PiuRhkOx-4" value="tính toán giá tiền, phụ phí khuyến mãi và yêu cầu thanh toán" style="rounded=0;whiteSpace=wrap;html=1;" parent="1" vertex="1">
          <mxGeometry x="180" y="480" width="140" height="60" as="geometry" />
        </mxCell>
        <mxCell id="oLZNWPjv2zB4ONgetcml-4" style="edgeStyle=orthogonalEdgeStyle;rounded=0;orthogonalLoop=1;jettySize=auto;html=1;" parent="1" source="2F0WKF6jckK8PiuRhkOx-6" edge="1">
          <mxGeometry relative="1" as="geometry">
            <mxPoint x="540" y="770" as="targetPoint" />
          </mxGeometry>
        </mxCell>
        <mxCell id="2F0WKF6jckK8PiuRhkOx-6" value="khách hàng từ chối thanh toán đơn hàng" style="shape=parallelogram;perimeter=parallelogramPerimeter;whiteSpace=wrap;html=1;fixedSize=1;" parent="1" vertex="1">
          <mxGeometry x="470" y="490" width="140" height="60" as="geometry" />
        </mxCell>
        <mxCell id="2F0WKF6jckK8PiuRhkOx-9" style="edgeStyle=orthogonalEdgeStyle;rounded=0;orthogonalLoop=1;jettySize=auto;html=1;" parent="1" source="2F0WKF6jckK8PiuRhkOx-8" edge="1">
          <mxGeometry relative="1" as="geometry">
            <mxPoint x="250" y="670" as="targetPoint" />
          </mxGeometry>
        </mxCell>
        <mxCell id="2F0WKF6jckK8PiuRhkOx-8" value="Khách hàng thanh toán đơn hàng" style="shape=parallelogram;perimeter=parallelogramPerimeter;whiteSpace=wrap;html=1;fixedSize=1;" parent="1" vertex="1">
          <mxGeometry x="190" y="570" width="120" height="60" as="geometry" />
        </mxCell>
        <mxCell id="2F0WKF6jckK8PiuRhkOx-11" style="edgeStyle=orthogonalEdgeStyle;rounded=0;orthogonalLoop=1;jettySize=auto;html=1;" parent="1" source="2F0WKF6jckK8PiuRhkOx-10" target="2F0WKF6jckK8PiuRhkOx-12" edge="1">
          <mxGeometry relative="1" as="geometry">
            <mxPoint x="250" y="780" as="targetPoint" />
          </mxGeometry>
        </mxCell>
        <mxCell id="2F0WKF6jckK8PiuRhkOx-10" value="lưu trữ đơn hàng, dữ liệu người dùng" style="rounded=0;whiteSpace=wrap;html=1;" parent="1" vertex="1">
          <mxGeometry x="190" y="670" width="120" height="70" as="geometry" />
        </mxCell>
        <mxCell id="oLZNWPjv2zB4ONgetcml-1" style="edgeStyle=orthogonalEdgeStyle;rounded=0;orthogonalLoop=1;jettySize=auto;html=1;" parent="1" source="2F0WKF6jckK8PiuRhkOx-12" edge="1">
          <mxGeometry relative="1" as="geometry">
            <mxPoint x="480" y="820" as="targetPoint" />
          </mxGeometry>
        </mxCell>
        <mxCell id="2F0WKF6jckK8PiuRhkOx-12" value="hiển thị các sản phẩm liên quan..." style="rhombus;whiteSpace=wrap;html=1;" parent="1" vertex="1">
          <mxGeometry x="190" y="780" width="120" height="80" as="geometry" />
        </mxCell>
        <mxCell id="oLZNWPjv2zB4ONgetcml-2" value="Kết thúc giao dịch" style="ellipse;whiteSpace=wrap;html=1;" parent="1" vertex="1">
          <mxGeometry x="480" y="780" width="120" height="80" as="geometry" />
        </mxCell>
      </root>
    </mxGraphModel>
  </diagram>
</mxfile>
